<svg width="111" height="30" viewBox="0 0 111 30" fill="none" xmlns="http://www.w3.org/2000/svg">
<path d="M111 17.6823C110.999 15.9506 110.999 14.219 110.999 12.4873C110.999 12.4323 110.992 12.3766 110.988 12.3216C110.915 12.3021 110.853 12.2843 110.792 12.2691C109.975 12.0698 109.448 11.5765 109.291 10.7684C109.198 10.2892 109.153 9.79533 109.146 9.30755C109.128 7.92856 109.155 6.54957 109.133 5.17059C109.123 4.58806 109.08 3.9982 108.97 3.42668C108.671 1.87532 107.715 0.899153 106.138 0.525677C105.362 0.34169 104.566 0.294624 103.773 0.301959C102.167 0.317851 100.56 0.371642 98.9546 0.411373C98.8939 0.412596 98.8332 0.428488 98.7762 0.437046V6.39126C98.8188 6.39126 98.8501 6.39065 98.8814 6.39187C99.5838 6.40899 100.288 6.39493 100.987 6.453C101.655 6.50801 101.978 6.81302 102.114 7.39066C102.141 7.5068 102.164 7.6266 102.167 7.74457C102.184 8.41145 102.191 9.07894 102.209 9.74581C102.229 10.4818 102.227 11.2195 102.289 11.9524C102.381 13.049 102.88 13.9463 103.795 14.6083C103.943 14.7159 104.093 14.8223 104.26 14.9421C104.158 15.0118 104.072 15.0772 103.98 15.1316C103.033 15.6951 102.518 16.5399 102.367 17.5888C102.274 18.2343 102.241 18.8895 102.212 19.5424C102.179 20.3028 102.202 21.0662 102.162 21.826C102.12 22.5968 101.777 22.9311 100.995 23.0369C100.797 23.0638 100.597 23.0882 100.398 23.0919C99.9619 23.0999 99.5256 23.0944 99.0692 23.0944V22.8431C99.0692 20.3743 99.0767 17.906 99.0642 15.4372C99.061 14.8223 99.0266 14.2031 98.9471 13.593C98.646 11.2935 97.4265 9.59484 95.3456 8.48786C94.215 7.88638 92.9867 7.62293 91.709 7.55814C90.0863 7.47562 88.5238 7.70545 87.0971 8.50253C86.4329 8.87356 85.8137 9.32099 85.1739 9.7342C85.1151 9.7721 85.0575 9.81244 84.9648 9.87479V0.000611253H76.5279V10.8882C76.469 10.8204 76.4434 10.7941 76.4214 10.7654C76.0233 10.2379 75.5513 9.79044 75.016 9.41268C74.8464 9.29288 74.6711 9.1804 74.4889 9.07405C73.0127 8.21279 71.3832 7.83687 69.6961 7.65839C68.3388 7.51413 66.9785 7.50435 65.6175 7.61438C64.1708 7.73112 62.7553 7.98969 61.3962 8.49886C60.0778 8.99275 58.8827 9.67613 57.965 10.7483C57.6689 11.0936 57.4247 11.4818 57.158 11.8491C57.1605 11.8522 57.1411 11.8357 57.1298 11.8149C56.4938 10.6321 55.5178 9.78493 54.3453 9.13334C52.5085 8.11377 50.5021 7.70851 48.4206 7.58198C47.0577 7.49885 45.6986 7.54164 44.3458 7.73113C42.946 7.92734 41.595 8.28248 40.3236 8.90045C38.4098 9.832 37.0469 11.233 36.4203 13.2611C36.3934 13.3479 36.3646 13.4335 36.3251 13.557C35.1363 10.6444 33.2113 8.52514 30.0236 7.78736C26.8709 7.05752 24.1026 7.84482 21.7588 10.0624C21.7444 10.0441 21.73 10.0264 21.7156 10.008V0H13.2918V29.3964H21.2755V26.9948C21.293 26.9856 21.3099 26.9764 21.3274 26.9666C21.3644 27.0161 21.3976 27.0693 21.4395 27.1146C22.0618 27.7839 22.7322 28.4031 23.5273 28.8744C25.6395 30.1274 27.8976 30.2747 30.2201 29.6103C32.3367 29.0052 33.9093 27.6739 35.1157 25.9031C35.1595 25.8383 35.2039 25.7735 35.2578 25.6946C35.2841 25.7411 35.2997 25.7612 35.3085 25.7845C35.8631 27.3138 36.9361 28.3872 38.4029 29.1054C39.5035 29.6445 40.6823 29.8964 41.9055 29.9612C43.4493 30.0431 44.9593 29.8915 46.3991 29.2973C47.5729 28.8132 48.6197 28.125 49.6351 27.386C49.6933 27.3438 49.7534 27.304 49.8304 27.2515C49.9612 27.955 50.1672 28.6011 50.4589 29.2222C50.5228 29.3585 50.5916 29.4153 50.755 29.4147C53.3374 29.4086 55.9191 29.4104 58.5015 29.4104H58.7287C58.2285 28.6097 58.0651 27.7607 58.0607 26.8395C58.1208 26.8902 58.1565 26.9153 58.186 26.9459C59.0054 27.7723 59.9745 28.3847 61.05 28.8426C62.5375 29.4758 64.1025 29.7919 65.7145 29.9141C67.736 30.0675 69.7386 29.9624 71.7112 29.4881C72.8907 29.2044 74.0056 28.7961 75.016 28.1873C75.5194 27.8847 75.9957 27.5327 76.4421 27.1213C76.459 27.106 76.479 27.0938 76.5291 27.0577V29.4025H84.9711V29.1543C84.9711 25.3633 84.9692 21.5723 84.9742 17.7813C84.9748 17.4176 84.9999 17.0509 85.05 16.6903C85.1339 16.0839 85.3323 15.5118 85.7473 15.0374C86.4134 14.2758 87.298 14.0869 88.2684 14.1695C89.409 14.266 90.0951 14.9017 90.4112 15.95C90.5671 16.4671 90.6247 16.9983 90.6247 17.535C90.6266 21.4079 90.626 25.2808 90.6266 29.1537V29.4123H90.8545C91.7065 29.4123 92.5591 29.408 93.4112 29.4129C95.3068 29.4239 97.2024 29.4324 99.0986 29.455C100.498 29.4722 101.899 29.5211 103.299 29.5351C104.228 29.5449 105.162 29.5431 106.073 29.3316C107.548 28.9893 108.568 28.1445 108.921 26.6683C109.056 26.1035 109.117 25.5119 109.129 24.9312C109.158 23.5082 109.135 22.0846 109.143 20.6616C109.145 20.348 109.172 20.0326 109.218 19.7221C109.357 18.7703 109.819 18.0815 110.858 17.8981C111.006 17.8718 111 17.7875 111 17.6823ZM28.22 21.5876C27.7861 22.5754 27.0944 23.304 25.9888 23.5656C24.4413 23.9324 22.7598 23.4635 21.9466 21.6377C21.5841 20.8229 21.447 19.9617 21.4151 19.0833C21.375 17.9855 21.4802 16.906 21.9522 15.8913C22.4555 14.8088 23.2625 14.0655 24.5026 13.8913C26.2718 13.6432 27.624 14.4353 28.2782 16.0625C28.6257 16.925 28.7271 17.8278 28.734 18.7465C28.7258 19.7215 28.6181 20.6811 28.22 21.5876ZM40.4638 17.5576C39.3125 17.7893 38.232 18.2153 37.2673 18.8895C37.2479 18.903 37.2241 18.9103 37.2241 18.9103C37.1446 17.8669 37.0657 16.8339 36.985 15.7832H43.6628C43.6872 15.4898 43.6891 15.2122 43.7367 14.9433C43.9025 14.0001 44.4779 13.3779 45.39 13.0704C46.4023 12.7293 47.4302 12.7367 48.4494 13.0588C48.8287 13.1786 49.1649 13.3767 49.4254 13.6798C50.0276 14.3791 49.8679 15.263 49.0547 15.7086C48.4719 16.0277 47.8233 16.1456 47.1779 16.2691C44.9392 16.6964 42.6975 17.1077 40.4638 17.5576ZM49.5963 22.6396C49.004 23.9758 47.9404 24.7398 46.5031 25.0314C45.8144 25.1708 45.1183 25.2013 44.4359 24.9941C43.7379 24.7832 43.2296 24.378 43.0868 23.6365C42.951 22.9305 43.2408 22.282 43.895 21.9507C44.3095 21.741 44.7552 21.5839 45.1978 21.4324C46.6921 20.9207 48.1908 20.4213 49.6883 19.9177C49.754 19.8957 49.8204 19.8749 49.9137 19.8443C49.9218 20.8064 49.9913 21.7478 49.5963 22.6396ZM69.676 23.9813C69.3749 24.2967 68.9886 24.4684 68.5698 24.5687C67.7704 24.76 66.9678 24.7496 66.1778 24.5302C65.0873 24.2264 64.5157 23.4654 64.2847 22.4207C64.2659 22.3346 64.249 22.2484 64.2258 22.1384H58.0626V18.2208C58.072 18.2221 58.0946 18.219 58.1039 18.2282C59.1262 19.2355 60.382 19.8553 61.7574 20.2312C63.0157 20.576 64.296 20.8419 65.568 21.1402C66.5953 21.381 67.6264 21.6066 68.6493 21.8633C68.9317 21.9336 69.209 22.0638 69.4569 22.2154C70.1249 22.6237 70.2144 23.4171 69.676 23.9813ZM76.5116 17.9513C76.4941 17.9445 76.4684 17.9421 76.4528 17.9287C76.3989 17.884 76.3445 17.8406 76.2894 17.7985C76.2587 17.774 76.228 17.7502 76.1967 17.7269C76.1748 17.7098 76.1523 17.6933 76.1291 17.6768C76.104 17.6579 76.079 17.6395 76.0533 17.6218C76.0283 17.6035 76.002 17.5851 75.9763 17.5674C75.9626 17.5576 75.9488 17.5478 75.935 17.5387C75.9037 17.5167 75.8718 17.4953 75.8399 17.4745C75.7046 17.384 75.5663 17.2985 75.4261 17.2178C75.3904 17.197 75.3547 17.1762 75.3184 17.1566C75.2827 17.1365 75.2464 17.1163 75.2101 17.0973C75.1456 17.0625 75.0811 17.0289 75.016 16.9965C75.0073 16.9916 74.9991 16.9873 74.9904 16.9837C74.939 16.958 74.8877 16.9329 74.8363 16.9091C74.7763 16.8804 74.7155 16.8522 74.6548 16.826C74.5039 16.7587 74.3512 16.6958 74.1966 16.6377C74.1477 16.6194 74.0995 16.6016 74.0507 16.5839C74.0019 16.5662 73.953 16.5491 73.9042 16.5326C73.8691 16.5203 73.8335 16.5087 73.7984 16.4971C73.7352 16.4757 73.672 16.4555 73.6075 16.4366C73.5737 16.4256 73.5386 16.4158 73.5042 16.4054C73.2995 16.3443 73.091 16.2899 72.8806 16.241C71.546 15.9305 70.1963 15.6817 68.8547 15.3987C67.9357 15.2049 67.0167 15.0111 66.1039 14.7911C65.8535 14.7312 65.6106 14.6004 65.3934 14.4592C64.6409 13.9696 64.686 13.1438 65.4817 12.7214C65.9956 12.4488 66.5603 12.3724 67.1312 12.3956C67.5663 12.4127 68.0095 12.4561 68.4302 12.56C69.3142 12.7789 69.6942 13.428 69.8244 14.2556C69.8288 14.2868 69.8338 14.318 69.8419 14.3712H76.5116V17.9513Z" fill="#F1F1F1"/>
<path d="M12.215 23.4195V29.4392C11.9659 29.4392 11.723 29.4367 11.4801 29.4392C9.89308 29.4557 8.30611 29.485 6.71913 29.4844C6.00985 29.4844 5.29993 29.4135 4.61506 29.2154C3.15955 28.7937 2.31504 27.8236 2.05336 26.3841C1.94819 25.8053 1.90312 25.2099 1.8931 24.6213C1.87056 23.2429 1.89748 21.8639 1.87933 20.4849C1.87307 20.0155 1.82987 19.5411 1.7416 19.0803C1.58134 18.2459 1.03106 17.7532 0.194694 17.5533C0.132091 17.5387 0.0694888 17.5228 0 17.5057V11.9818C0.0694888 11.9634 0.135222 11.942 0.202832 11.928C1.08991 11.7434 1.62203 11.2208 1.76414 10.3436C1.82236 9.98481 1.87682 9.62051 1.88058 9.25804C1.89435 7.79103 1.86869 6.32402 1.89874 4.85763C1.91 4.28977 1.97636 3.71092 2.11158 3.15895C2.48219 1.64733 3.52265 0.779347 5.05453 0.485946C5.70247 0.361862 6.37419 0.312961 7.03528 0.309905C8.33115 0.304404 9.62765 0.355138 10.9241 0.382644C11.2146 0.388757 11.5045 0.394258 11.7949 0.402816C11.9295 0.406483 12.0641 0.415652 12.2113 0.422987V6.74517C12.1418 6.74517 12.0673 6.74273 11.9934 6.74517C11.3492 6.76718 10.7013 6.75618 10.0615 6.82158C9.24264 6.90532 8.90021 7.27269 8.86327 8.08504C8.82383 8.95241 8.85075 9.82222 8.81131 10.6896C8.78439 11.2721 8.72054 11.8559 8.6235 12.431C8.47701 13.2972 8.04756 14.0111 7.30008 14.527C7.12167 14.6499 6.95264 14.7862 6.76671 14.9256C6.92697 15.0374 7.07785 15.1413 7.22747 15.2471C8.14021 15.8926 8.65731 16.7777 8.73055 17.8596C8.80881 19.0136 8.79003 20.1732 8.82195 21.3303C8.83197 21.6879 8.85263 22.0473 8.90208 22.4018C8.97408 22.9195 9.28459 23.2398 9.81859 23.3395C10.5535 23.477 11.2948 23.4581 12.0366 23.4324C12.0929 23.4305 12.148 23.4244 12.215 23.4195Z" fill="#F1F1F1"/>
</svg>
