<?xml version="1.0" standalone="no"?>
<!DOCTYPE svg PUBLIC "-//W3C//DTD SVG 20010904//EN"
 "http://www.w3.org/TR/2001/REC-SVG-20010904/DTD/svg10.dtd">
<svg version="1.0" xmlns="http://www.w3.org/2000/svg"
 width="400.000000pt" height="400.000000pt" viewBox="0 0 400.000000 400.000000"
 preserveAspectRatio="xMidYMid meet">
<metadata>
Created by potrace 1.14, written by Peter Selinger 2001-2017
</metadata>
<g transform="translate(0.000000,400.000000) scale(0.100000,-0.100000)"
fill="#000000" stroke="none">
<path d="M1848 3996 c-1 -2 -34 -6 -73 -10 -38 -3 -80 -8 -91 -10 -12 -2 -37
-7 -55 -10 -61 -10 -192 -45 -279 -75 -75 -25 -124 -46 -259 -108 -20 -9 -60
-32 -89 -50 -29 -18 -55 -33 -57 -33 -6 0 -85 -55 -167 -117 -95 -71 -211
-181 -291 -276 -23 -27 -51 -59 -61 -71 -41 -46 -167 -246 -210 -333 -114
-229 -171 -423 -206 -698 -8 -67 -5 -387 4 -450 22 -137 29 -172 50 -257 24
-89 83 -263 104 -304 5 -11 20 -39 32 -64 118 -239 237 -401 423 -579 287
-273 655 -458 1037 -522 185 -31 521 -33 651 -5 13 3 38 8 54 10 17 3 41 7 55
11 14 3 37 7 52 10 90 17 301 96 443 166 147 73 381 243 495 359 35 36 159
178 187 215 47 62 103 144 103 151 0 3 9 18 20 34 31 43 119 225 151 312 30
83 74 230 83 283 3 17 8 41 11 55 23 118 30 199 29 375 0 151 -7 261 -19 305
-2 8 -6 33 -10 55 -3 22 -7 47 -10 55 -2 8 -6 26 -9 40 -5 32 -35 139 -45 165
-5 11 -18 47 -30 80 -81 220 -235 473 -390 639 -223 239 -428 380 -756 521
-99 43 -338 104 -470 120 -53 7 -401 16 -407 11z"/>
</g>
</svg>
