<?xml version="1.0" encoding="UTF-8" standalone="no"?>
<!DOCTYPE svg PUBLIC "-//W3C//DTD SVG 1.1//EN" "http://www.w3.org/Graphics/SVG/1.1/DTD/svg11.dtd"><svg width="100%"
    height="100%" viewBox="0 0 210 32" version="1.1" xmlns="http://www.w3.org/2000/svg"
    xmlns:xlink="http://www.w3.org/1999/xlink" xml:space="preserve" xmlns:serif="http://www.serif.com/"
    style="fill-rule:evenodd;clip-rule:evenodd;stroke-linejoin:round;stroke-miterlimit:2;">
    <g id="Layer_2">
        <g id="Layer_1-2">
            <g id="moonbeans">
                <path
                    d="M46.658,7.607l0,17.05l2.23,0l0,0.525l-4.984,0l0,-0.525l0.524,0c1.181,0 1.706,-0.525 1.706,-1.836l-0,-14.297c-0,-0.002 -0,-0.004 -0,-0.006c-0,-0.645 -0.531,-1.175 -1.175,-1.175c-0.002,-0 -0.003,-0 -0.004,-0l-1.051,-0l0,-0.525l4.328,-0l6.69,16.265l6.69,-16.265l4.197,-0l0,0.525l-2.098,-0l-0,17.314l2.098,0l0,0.525l-5.771,0l-0,-0.525l0.786,0c0.002,0 0.004,0 0.005,0c0.645,0 1.176,-0.531 1.176,-1.176c0,-0.001 0,-0.003 0,-0.005l0,-15.869l-7.345,17.838l-0.656,-0l-7.346,-17.838Z"
                    style="fill:#fff;fill-rule:nonzero;" />
                <path
                    d="M106.136,8.524l0,16.133l2.229,0l0,0.525l-4.984,0l0,-0.525l0.525,0c1.181,0 1.705,-0.525 1.705,-1.836l0,-14.297c0,-0.002 0,-0.004 0,-0.006c0,-0.645 -0.53,-1.175 -1.175,-1.175c-0.002,-0 -0.003,-0 -0.005,-0l-1.05,-0l0,-0.525l3.673,-0l12.067,15.609l0,-15.084l-2.099,-0l0,-0.525l4.854,-0l0,0.525l-0.525,-0c-1.18,-0 -1.705,0.524 -1.705,1.836l0,16.396l-0.342,0l-13.168,-17.051Z"
                    style="fill:#fff;fill-rule:nonzero;" />
                <path
                    d="M122.549,24.657l1.049,0c0.001,0 0.003,0 0.005,0c0.645,0 1.175,-0.531 1.175,-1.176c0,-0.001 0,-0.003 0,-0.005l0,-10.621c0,-4.329 2.099,-6.428 6.031,-6.428c3.542,0 5.771,2.23 5.771,4.329c0,3.673 -3.803,3.856 -3.803,3.856l0,0.158c0,-0 5.378,0.052 5.378,5.037c-0,3.015 -2.361,5.378 -7.084,5.378l-8.522,-0l-0,-0.528Zm8.525,0c3.28,0 5.116,-1.836 5.116,-4.853c-0,-2.492 -1.364,-4.853 -5.116,-4.853l-2.623,-0l-0,-0.394l2.361,-0c2.493,-0 3.804,-1.312 3.804,-3.673c-0,-2.23 -1.705,-3.935 -3.804,-3.935c-2.492,0 -4.329,1.836 -4.329,5.903l0,11.805l4.591,0Z"
                    style="fill:#fff;fill-rule:nonzero;" />
                <path
                    d="M139.853,24.657l1.05,0c0.001,0 0.003,0 0.004,0c0.645,0 1.176,-0.531 1.176,-1.176c0,-0.001 0,-0.003 0,-0.005l0,-14.952c0,-0.002 0,-0.004 0,-0.006c0,-0.645 -0.53,-1.175 -1.175,-1.175c-0.002,-0 -0.004,-0 -0.005,-0l-1.05,-0l0,-0.525l14.036,-0l-0,3.804l-0.394,-0l-0.129,-0.787c-0.262,-1.576 -0.918,-2.492 -2.886,-2.492l-6.689,-0l-0,7.606l3.935,0c1.049,0 1.836,-0.787 1.836,-1.836l-0,-0.655l0.393,0l0,5.247l-0.393,-0l-0,-2.361l-5.771,0l-0,9.313l7.345,0c1.968,0 2.624,-0.918 2.886,-2.492l0.131,-0.787l0.394,0l-0,3.804l-14.694,0l0,-0.525Z"
                    style="fill:#fff;fill-rule:nonzero;" />
                <path
                    d="M156.464,24.657l0.787,0c1.049,0 1.653,-0.525 1.968,-1.443l6.03,-16.789l0.919,-0l6.03,16.658c0.42,1.102 0.787,1.576 1.968,1.576l0.656,0l-0,0.525l-5.51,0l0,-0.525l1.576,0l-1.966,-5.511l-7.606,0l-1.967,5.509l1.705,0l-0,0.525l-4.591,0l0.001,-0.525Zm12.33,-5.902l-3.673,-10.231l-3.672,10.231l7.345,-0Z"
                    style="fill:#fff;fill-rule:nonzero;" />
                <path
                    d="M179.865,8.524l-0,16.133l2.23,0l-0,0.525l-4.984,0l-0,-0.525l0.524,0c1.181,0 1.705,-0.525 1.705,-1.836l0,-14.297c0,-0.002 0,-0.004 0,-0.006c0,-0.645 -0.53,-1.175 -1.175,-1.175c-0.002,-0 -0.003,-0 -0.005,-0l-1.049,-0l-0,-0.525l3.672,-0l12.067,15.609l0,-15.084l-2.098,-0l0,-0.525l4.853,-0l0,0.525l-0.525,-0c-1.18,-0 -1.705,0.524 -1.705,1.836l0,16.396l-0.342,0l-13.168,-17.051Z"
                    style="fill:#fff;fill-rule:nonzero;" />
                <path
                    d="M197.019,23.608l0,-3.673l0.393,-0l0.131,0.656c0.525,2.623 3.148,4.46 5.772,4.46c3.41,-0 5.246,-1.837 5.246,-4.198c0,-4.853 -10.493,-4.46 -10.493,-9.969c0,-2.492 1.968,-4.459 5.247,-4.459c3.279,-0 4.984,1.576 4.984,1.576l0,3.148l-0.394,-0l-0.13,-0.656c-0.525,-2.099 -2.099,-3.541 -4.46,-3.541c-2.493,-0 -3.935,1.439 -3.935,3.41c-0,4.592 10.493,3.803 10.493,10.1c-0,2.886 -2.229,5.116 -6.558,5.116c-3.934,-0.003 -6.296,-1.97 -6.296,-1.97Z"
                    style="fill:#fff;fill-rule:nonzero;" />
                <path
                    d="M67.354,16c-0,-5.509 4.066,-9.575 9.183,-9.575c5.116,-0 9.182,4.066 9.182,9.575c0,5.509 -4.065,9.575 -9.182,9.575c-5.117,0 -9.183,-4.066 -9.183,-9.575Zm16.396,0c-0,-5.641 -3.41,-9.051 -7.214,-9.051c-3.804,0 -7.215,3.41 -7.215,9.051c0,5.641 3.411,9.051 7.215,9.051c3.804,-0 7.214,-3.411 7.214,-9.051Z"
                    style="fill:#fff;fill-rule:nonzero;" />
                <path
                    d="M92.643,6.425c-2.809,-0 -5.303,1.233 -6.98,3.25c0.333,0.399 0.631,0.826 0.891,1.275c1.312,-2.558 3.617,-4.001 6.09,-4.001c3.804,0 7.214,3.41 7.214,9.051c0,5.641 -3.41,9.051 -7.214,9.051c-2.473,-0 -4.778,-1.443 -6.09,-4.001c-0.26,0.449 -0.558,0.876 -0.891,1.275c1.677,2.02 4.169,3.25 6.98,3.25c5.116,0 9.183,-4.066 9.183,-9.575c0,-5.509 -4.067,-9.575 -9.183,-9.575Z"
                    style="fill:#fff;fill-rule:nonzero;" />
            </g>
            <path id="Logomark-dark"
                d="M22.483,1.36l-0.102,-0.045l-0.116,-0.05c-5.83,-2.467 -12.823,-1.326 -17.575,3.426c-2.928,2.921 -4.609,6.867 -4.687,11.002l0,0.512c0.109,8.739 7.231,15.798 16,15.798c2.137,0.002 4.253,-0.424 6.222,-1.255l0.016,-0.007l0.133,-0.057l0.082,-0.036l0.069,-0.03l0.148,-0.069c1.783,-0.822 3.4,-1.964 4.772,-3.369l-0,0.005c0.123,-0.127 0.245,-0.256 0.364,-0.386c0.854,-0.933 1.594,-1.963 2.206,-3.069l0.034,-0.062c0.014,-0.024 0.028,-0.05 0.041,-0.075l0.069,-0.132l0.005,-0.011c1.211,-2.297 1.842,-4.856 1.838,-7.453c0.004,-6.532 -3.905,-12.149 -9.519,-14.637Zm9.065,13.884l-7.003,-2.898c0.071,-0.209 0.108,-0.429 0.107,-0.65c0,-0.053 0,-0.107 -0.006,-0.161c-0.037,-0.506 -0.265,-0.979 -0.636,-1.324l5.345,-2.215c1.32,2.197 2.074,4.688 2.193,7.248Zm-7.004,-2.895c-0.007,0.022 -0.016,0.042 -0.024,0.064l0.023,-0.063l0.001,-0.001Zm-0.919,0.571l-0.003,0.003c-0.558,0.496 -1.28,0.77 -2.026,0.77c-1.673,0 -3.05,-1.376 -3.05,-3.049c0,-0.778 0.298,-1.527 0.832,-2.093c0.562,-0.634 1.544,-0.701 2.187,-0.148c0.032,0.027 0.062,0.055 0.091,0.084c0.265,0.264 0.426,0.616 0.455,0.989c0.01,0.138 0.002,0.276 -0.024,0.411l-0.058,0.32l0.319,-0.059c0.054,-0.01 0.109,-0.017 0.164,-0.021c0.04,-0.003 0.081,-0.005 0.122,-0.005c0.816,0 1.503,0.637 1.565,1.45c0.038,0.475 -0.142,0.942 -0.488,1.269c-0.024,0.024 -0.05,0.048 -0.076,0.068l-0.008,0.007l-0.002,0.004Zm-9.166,14.278l-0.034,-0.005c-0.076,-0.011 -0.153,-0.022 -0.229,-0.035c-4.682,-0.735 -8.397,-4.396 -9.202,-9.067c-0.029,-0.163 -0.054,-0.328 -0.074,-0.494c-0.438,-3.407 0.73,-6.831 3.159,-9.26c0.567,-0.567 1.193,-1.073 1.867,-1.507c0.169,-0.109 0.34,-0.212 0.513,-0.312c1.444,-0.821 3.056,-1.303 4.713,-1.409c-0.767,0.409 -1.469,0.929 -2.083,1.545c-0.22,0.22 -0.429,0.451 -0.624,0.693c-0.106,0.13 -0.205,0.262 -0.305,0.398c-1.074,1.492 -1.65,3.285 -1.645,5.123c-0,0.773 0.101,1.542 0.3,2.288c0.041,0.157 0.088,0.313 0.137,0.466c0.886,2.674 3.004,4.767 5.688,5.62c0.155,0.049 0.311,0.093 0.469,0.132c2.536,0.654 5.234,0.143 7.356,-1.391c0.137,-0.098 0.267,-0.2 0.397,-0.307c0.229,-0.187 0.448,-0.385 0.657,-0.594c0.587,-0.585 1.089,-1.251 1.488,-1.977c-0.123,1.574 -0.586,3.103 -1.355,4.481c-0.098,0.177 -0.201,0.35 -0.31,0.521c-2.272,3.599 -6.417,5.593 -10.647,5.121c-0.079,-0.011 -0.157,-0.022 -0.236,-0.03Zm3.647,-16.276c0.028,0.379 0.119,0.751 0.268,1.101l-7.135,2.958c-0.635,-2.435 -0.139,-5.03 1.35,-7.058l5.534,2.288c-0.029,0.236 -0.035,0.474 -0.016,0.711l-0.001,0Zm0.488,1.534c0.147,0.243 0.323,0.468 0.524,0.669c0.064,0.065 0.132,0.126 0.202,0.187c0.144,0.124 0.298,0.236 0.461,0.335l-2.967,7.179c-2.575,-0.804 -4.605,-2.812 -5.438,-5.378l7.218,-2.992Zm-1.309,8.502l2.931,-7.088c0.52,0.224 1.087,0.317 1.651,0.271c0.056,-0.004 0.111,-0.01 0.166,-0.018l2.254,5.434c-2.005,1.49 -4.577,2.005 -7.002,1.401Zm11.81,-13.377l-5.558,2.304c-0.302,-0.152 -0.637,-0.224 -0.975,-0.212c0.013,-0.337 -0.059,-0.673 -0.209,-0.976l2.325,-5.626c1.762,1.189 3.265,2.724 4.417,4.51Zm-4.831,-4.778l-2.24,5.42c-0.052,-0.056 -0.108,-0.11 -0.168,-0.16c-0.542,-0.466 -1.294,-0.608 -1.969,-0.373l-3.004,-7.243c2.62,0.147 5.16,0.958 7.381,2.356Zm-8.265,-2.381c0.117,0 0.234,0 0.35,0.004l3.101,7.475c-0.15,0.097 -0.286,0.214 -0.405,0.348c-0.39,0.419 -0.673,0.927 -0.822,1.48l-5.321,-2.202c0.159,-0.191 0.328,-0.377 0.507,-0.556c0.829,-0.833 1.825,-1.481 2.923,-1.9l1.057,-0.401l-1.131,-0.033c-2.222,-0.07 -4.417,0.51 -6.315,1.668l-4.413,-1.828c2.86,-2.611 6.596,-4.058 10.469,-4.055Zm-0,31.135c-8.584,0 -15.568,-6.983 -15.568,-15.567c-0.002,-4.199 1.7,-8.224 4.713,-11.148l4.303,1.782c-0.604,0.411 -1.169,0.878 -1.685,1.394c-2.559,2.558 -3.771,6.175 -3.271,9.758c0.022,0.161 0.047,0.32 0.076,0.479c-0,0.004 -0,0.009 0,0.013c0.866,4.778 4.662,8.521 9.453,9.319c0.163,0.028 0.328,0.052 0.493,0.069c3.53,0.436 7.07,-0.778 9.589,-3.289c0.538,-0.538 1.022,-1.127 1.445,-1.758l1.714,4.117c-2.932,3.085 -7.007,4.833 -11.262,4.831Zm11.623,-5.223l-1.753,-4.226c1.096,-1.837 1.657,-3.945 1.62,-6.084l-0.016,-1.129l-0.417,1.05c-0.418,1.058 -1.05,2.018 -1.856,2.82c-0.168,0.168 -0.341,0.328 -0.52,0.48l-2.164,-5.218c0.567,-0.155 1.086,-0.451 1.507,-0.861c0.12,-0.113 0.226,-0.241 0.314,-0.381l7.229,2.992l-0,0.215c0.002,3.814 -1.403,7.498 -3.944,10.342Z"
                style="fill:#fff;fill-rule:nonzero;" />
        </g>
    </g>
</svg>